<?xml version="1.0" standalone="no"?>
<!DOCTYPE svg PUBLIC "-//W3C//DTD SVG 20010904//EN"
 "http://www.w3.org/TR/2001/REC-SVG-20010904/DTD/svg10.dtd">
<svg version="1.0" xmlns="http://www.w3.org/2000/svg"
 width="400.000000pt" height="220.000000pt" viewBox="0 0 400.000000 220.000000"
 preserveAspectRatio="xMidYMid meet">

<g transform="translate(0.000000,220.000000) scale(0.100000,-0.100000)"
fill="#000000" stroke="none">
<path d="M25 2018 c52 -176 158 -232 810 -428 429 -129 534 -166 681 -235 172
-81 249 -143 359 -285 97 -126 215 -363 215 -431 -1 -35 -34 -197 -43 -206 -3
-2 -10 22 -17 54 -46 235 -133 431 -257 585 -153 189 -324 272 -948 457 -266
79 -539 168 -643 210 -29 11 -57 21 -63 21 -13 0 16 -67 47 -107 70 -92 233
-145 639 -208 93 -14 172 -29 175 -32 14 -15 -443 19 -584 43 -48 8 -91 12
-95 9 -3 -4 24 -35 61 -71 100 -94 128 -100 378 -85 107 7 245 17 305 22 61 5
121 9 135 8 l25 0 -24 -10 c-30 -12 -403 -76 -496 -85 -38 -4 -77 -10 -84 -14
-22 -12 69 -66 153 -92 64 -19 76 -20 150 -9 72 11 262 51 444 94 34 9 62 12
62 8 0 -11 -171 -77 -340 -132 l-145 -47 39 -16 c65 -27 138 -46 178 -46 40 0
197 50 313 99 38 16 72 28 74 25 8 -8 -34 -34 -161 -96 -69 -35 -127 -66 -127
-69 -1 -3 67 -27 151 -53 194 -61 257 -93 333 -170 95 -97 194 -293 246 -489
12 -45 25 -86 29 -90 4 -4 12 11 19 33 6 22 15 40 19 40 4 0 17 -18 30 -40 30
-53 63 -74 104 -66 63 12 63 14 -7 137 -59 104 -77 150 -57 148 4 0 34 -35 67
-77 77 -97 117 -125 169 -119 21 3 45 12 53 20 13 13 3 26 -74 108 -131 139
-173 190 -173 210 0 11 3 19 6 19 4 0 57 -49 118 -108 129 -124 159 -141 213
-121 20 8 38 19 40 24 2 6 -38 39 -89 75 -121 86 -218 178 -218 209 0 35 121
149 200 188 36 17 127 51 203 74 75 24 137 45 137 49 -1 3 -40 24 -88 47 -94
46 -217 121 -210 128 2 3 49 -15 104 -39 129 -57 255 -96 307 -96 41 0 171 40
189 58 5 5 -34 22 -94 41 -130 41 -365 134 -350 139 6 2 62 -8 124 -23 444
-101 478 -102 612 -19 40 25 54 39 45 44 -8 4 -58 12 -111 18 -148 18 -474 80
-465 88 3 3 146 -5 318 -17 300 -21 317 -21 373 -5 47 14 70 29 124 81 36 36
63 67 60 71 -4 3 -44 -1 -90 -10 -100 -19 -256 -33 -438 -40 -160 -6 -141 2
92 39 294 46 465 98 540 164 33 29 93 129 84 139 -2 2 -71 -21 -153 -51 -81
-31 -279 -96 -438 -146 -468 -146 -657 -226 -802 -335 -157 -121 -253 -298
-281 -525 l-7 -56 -22 31 -22 30 20 75 c10 41 32 117 48 169 16 52 35 114 41
138 13 50 57 103 144 170 154 121 339 200 841 357 444 140 577 196 648 275 38
42 85 135 74 147 -2 1 -39 -24 -83 -57 -149 -114 -369 -210 -874 -382 -430
-147 -559 -205 -678 -306 -36 -31 -67 -51 -69 -46 -31 92 -155 138 -274 102
-46 -13 -113 -68 -135 -110 l-15 -29 -42 38 c-136 125 -282 189 -766 338 -524
161 -788 274 -954 410 -31 25 -59 45 -62 45 -3 0 -3 -10 0 -22z m2147 -734
l30 -16 -26 -27 c-14 -15 -26 -32 -26 -39 0 -15 -17 -16 -26 -1 -4 8 -9 8 -17
0 -18 -18 -33 -13 -45 15 -7 14 -28 32 -47 40 -19 8 -35 17 -35 19 0 26 146
33 192 9z m-202 -67 c0 -28 17 -47 43 -47 19 0 19 -1 1 -27 -10 -16 -24 -41
-32 -57 l-15 -29 -28 34 c-50 61 -53 71 -29 112 25 43 60 51 60 14z m58 -15
c3 -9 -2 -13 -14 -10 -9 1 -19 9 -22 16 -3 9 2 13 14 10 9 -1 19 -9 22 -16z
m187 8 c3 -6 -1 -13 -10 -16 -19 -8 -30 0 -20 15 8 14 22 14 30 1z m-87 -59
c7 -43 -4 -52 -37 -33 l-30 17 21 23 c26 26 42 24 46 -7z m91 -57 l-11 -29
-18 40 c-25 55 -24 63 8 67 23 2 27 -1 30 -23 2 -14 -2 -38 -9 -55z m-122 -10
l17 -26 18 24 c15 20 19 21 28 8 24 -37 22 -81 -9 -192 -17 -61 -32 -113 -35
-115 -2 -2 -11 15 -20 39 -10 24 -35 73 -57 110 -31 53 -38 73 -33 95 20 82
58 106 91 57z"/>
<path d="M1608 589 c-42 -42 -122 -108 -177 -146 -56 -37 -101 -70 -101 -74 0
-10 50 -29 79 -29 39 0 102 44 204 140 70 66 91 81 98 69 5 -8 9 -17 9 -21 0
-4 -61 -70 -136 -148 -129 -132 -136 -142 -118 -155 61 -46 117 -23 221 91 42
46 80 84 85 84 21 0 3 -42 -62 -146 -38 -61 -70 -114 -70 -117 0 -7 59 -27 81
-27 26 0 77 47 101 93 25 49 28 45 62 -83 30 -112 41 -128 68 -103 22 20 20
58 -8 148 -53 168 -224 510 -252 503 -4 -1 -42 -36 -84 -79z"/>
</g>
</svg>
